<?xml version="1.0" encoding="utf-8"?>
<!-- Generator: Adobe Illustrator 22.0.0, SVG Export Plug-In . SVG Version: 6.00 Build 0)  -->
<svg version="1.1" id="Layer_1" xmlns="http://www.w3.org/2000/svg" xmlns:xlink="http://www.w3.org/1999/xlink" x="0px" y="0px"
	 viewBox="0 0 181 159" style="enable-background:new 0 0 181 159;" xml:space="preserve">
<style type="text/css">
	.st0{fill:#595959;}
</style>
<path class="st0" d="M144.7,0.2c-15.8,0-28.4,12.7-28.4,28.6s12.6,28.4,28.4,28.4s28.5-12.6,28.5-28.4S160.5,0.2,144.7,0.2z"/>
<path class="st0" d="M144.7,51.8c-12.8,0-23.1-10.4-23.1-23.1c0-5,1.6-9.7,4.4-13.5C112.9,5.6,96.7,0,79.2,0
	C35.1,0,0.1,35.5,0.1,79.6c0,44.1,35,79.1,79.1,79.1c44.1,0,79.4-35.1,79.4-79.1c0-10.4-1.9-20.3-5.5-29.3
	C150.5,51.2,147.7,51.8,144.7,51.8L144.7,51.8z M79.2,123.4c-24,0-43.9-19.8-43.9-43.9c0-24.2,19.8-44.3,43.9-44.3
	c24.2,0,44.1,20.1,44.1,44.3C123.3,103.6,103.4,123.4,79.2,123.4L79.2,123.4z"/>
</svg>
